<?xml version="1.0" standalone="no"?>
<!DOCTYPE svg PUBLIC "-//W3C//DTD SVG 20010904//EN"
 "http://www.w3.org/TR/2001/REC-SVG-20010904/DTD/svg10.dtd">
<svg version="1.0" xmlns="http://www.w3.org/2000/svg"
 width="160.000000pt" height="160.000000pt" viewBox="0 0 160.000000 160.000000"
 preserveAspectRatio="xMidYMid meet">
<metadata>
Created by potrace 1.14, written by Peter Selinger 2001-2017
</metadata>
<g transform="translate(0.000000,160.000000) scale(0.100000,-0.100000)"
fill="#000000" stroke="none">
<path d="M718 1570 c-2 -7 -41 -12 -106 -13 -97 -2 -124 -9 -83 -22 10 -3 24
-19 31 -35 10 -25 9 -35 -7 -67 -28 -53 -45 -61 -87 -40 -20 9 -36 23 -36 32
0 29 -29 14 -40 -21 -10 -29 -10 -38 1 -45 11 -6 9 -13 -8 -31 -26 -29 -30
-43 -43 -157 -16 -139 -11 -146 109 -162 71 -9 96 -9 99 -1 2 7 10 12 17 12 7
0 15 8 17 18 3 11 22 23 46 30 23 7 46 21 52 31 5 10 25 22 44 25 23 4 44 18
60 38 20 26 34 33 73 37 43 5 48 9 51 34 3 21 8 27 28 27 55 0 83 45 55 89 -6
9 -4 22 4 35 16 25 4 63 -22 73 -10 3 -32 19 -50 34 -26 23 -29 28 -15 32 9 2
-1 7 -23 11 -36 6 -123 30 -151 42 -7 3 -14 0 -16 -6z m20 -47 c5 -17 -26 -29
-40 -15 -6 6 -7 15 -3 22 9 14 37 9 43 -7z m170 -40 c5 -17 -26 -29 -40 -15
-6 6 -7 15 -3 22 9 14 37 9 43 -7z m-293 -99 c26 -19 47 -91 34 -116 -12 -23
-22 -23 -44 2 -16 17 -17 26 -7 56 9 30 8 36 -9 47 -10 6 -19 15 -19 19 0 13
23 9 45 -8z m256 -35 c27 -27 18 -34 -22 -20 -18 6 -45 11 -62 11 -25 0 -28 2
-17 15 18 22 76 19 101 -6z m-71 -130 c-23 -43 -85 -64 -97 -33 -4 11 6 27 33
49 36 30 41 32 56 18 13 -12 15 -20 8 -34z m-404 -39 c0 -29 -3 -45 -8 -38 -9
15 -10 50 -2 72 3 9 7 16 8 16 0 0 1 -23 2 -50z"/>
<path d="M710 1520 c0 -5 5 -10 10 -10 6 0 10 5 10 10 0 6 -4 10 -10 10 -5 0
-10 -4 -10 -10z"/>
<path d="M880 1480 c0 -5 5 -10 10 -10 6 0 10 5 10 10 0 6 -4 10 -10 10 -5 0
-10 -4 -10 -10z"/>
<path d="M460 1510 c-24 -24 -25 -38 -4 -68 17 -24 62 -30 82 -10 18 18 15 64
-5 79 -15 11 -16 11 -5 -1 15 -18 16 -52 0 -68 -19 -19 -56 -14 -68 8 -15 29
-4 57 28 69 17 6 21 10 10 10 -10 1 -27 -8 -38 -19z"/>
<path d="M222 771 c-61 -183 -82 -320 -85 -544 l-2 -139 28 -24 c27 -23 34
-24 195 -25 92 -1 255 -4 362 -8 225 -7 310 2 462 49 153 47 255 99 311 159
50 53 56 68 32 77 -27 11 -17 34 14 34 31 0 49 14 31 25 -5 3 -10 26 -10 51 0
42 -1 44 -30 46 -16 0 -36 1 -42 2 -8 1 -15 -17 -18 -48 -5 -47 -6 -49 -40
-52 -61 -5 -70 2 -70 57 0 28 -5 49 -11 49 -5 0 -7 5 -4 10 3 6 42 10 86 10
64 0 79 3 79 15 0 8 5 15 10 15 23 0 7 34 -38 79 -52 51 -116 80 -187 83 -59
2 -230 -11 -312 -24 l-73 -11 0 -131 c0 -72 -4 -136 -8 -142 -4 -6 -39 -14
-78 -17 -38 -4 -97 -16 -130 -27 -94 -33 -130 -39 -279 -45 -77 -3 -148 -8
-157 -11 -32 -10 -19 7 17 22 20 8 67 14 113 14 148 0 164 37 177 408 l6 162
-29 0 -28 0 15 -89 c12 -69 12 -95 3 -115 -13 -30 -79 -66 -121 -66 -44 0
-107 28 -125 55 -21 32 -20 85 1 115 10 14 28 47 40 73 l22 48 -25 9 c-14 6
-31 10 -37 10 -7 0 -36 -70 -65 -159z m1173 -136 c47 -27 65 -50 65 -84 0 -19
-6 -21 -56 -21 -57 0 -84 -9 -119 -40 -19 -17 -23 -17 -88 5 -80 27 -97 40
-97 70 0 36 31 65 90 86 71 25 145 20 205 -16z m-315 4 c-14 -11 -50 -36 -80
-56 -30 -19 -58 -41 -62 -47 -4 -6 -8 16 -8 49 l0 61 72 2 c40 2 74 5 77 7 2
3 9 5 15 5 6 0 0 -10 -14 -21z"/>
</g>
</svg>
