<?xml version="1.0" encoding="utf-8"?>
<!-- Generator: Adobe Illustrator 27.9.6, SVG Export Plug-In . SVG Version: 9.03 Build 54986)  -->
<svg version="1.1" id="Calque_1" xmlns="http://www.w3.org/2000/svg" xmlns:xlink="http://www.w3.org/1999/xlink" x="0px" y="0px"
	 viewBox="0 0 3840 795.3" style="enable-background:new 0 0 3840 795.3;" xml:space="preserve">
<style type="text/css">
	.st0{fill:#E7F2E9;}
</style>
<g>
	<path class="st0" d="M3829.3,128.1c-42.5-2.6-86.8,11.7-115.9,43.8l0,0c-68.4-64.8-189.3-61.9-254.5,6.1
		c-83.4-55.4-211.2-24.2-259.7,63.4c-58.3-82.5-194-93.9-265.3-22.2c-40.7-48.1-120.4-56.4-170.1-17.7
		c-5.5-51.3-40.1-98.4-87.5-118.9C2629,62.1,2570.9,69,2529.7,100c-33.1-54.7-92.7-92.4-156.3-99S2243.7,19.1,2200,65.8
		c-46.4-71.4-166-76.6-218.5-9.5c-0.2-0.2-0.4-0.3-0.5-0.5c-35-30.1-86.9-30.1-121.9,0c-0.2,0.2-0.4,0.3-0.5,0.5
		C1806-10.8,1686.4-5.6,1640,65.8C1596.3,19.1,1530.2-5.5,1466.6,1s-123.2,44.2-156.5,98.8c-41.2-31-99.3-37.9-146.6-17.4
		s-82,67.7-87.5,118.9c-49.7-38.7-129.5-30.4-170.1,17.7c-71.3-71.7-207-60.3-265.3,22.2c-48.5-87.6-176.3-118.8-259.7-63.4
		c-65.2-67.9-186.1-70.8-254.5-6.1l0,0c-29-32.1-73.4-46.4-115.9-43.8c-3.6,0.2-7.2,0.5-10.7,0.8V795h1920h1920V128.9
		C3836.5,128.6,3833,128.3,3829.3,128.1z"/>
</g>
</svg>
