<?xml version="1.0" encoding="UTF-8"?>
<svg id="Calque_1" xmlns="http://www.w3.org/2000/svg" version="1.1" viewBox="0 0 1406.8 350.8">
  <!-- Generator: Adobe Illustrator 29.0.0, SVG Export Plug-In . SVG Version: 2.1.0 Build 186)  -->
  <defs>
    <style>
      .st0, .st1 {
        stroke: #000;
        stroke-miterlimit: 10;
        stroke-width: 5px;
      }

      .st1 {
        fill: #ff6cb9;
      }
    </style>
  </defs>
  <g>
    <path class="st0" d="M83.7,325.9c-1.1-4.7-.6-4.4-8.2-5-11.6-.9-26.8-5-36.5-9.8-12.5-6.2-18.1-11.6-28.2-26.5-5.5-8.1-7.2-12-8-17.9-1.5-10.9,3.9-21.9,13.5-27.5,7-4.1,16.8-4.4,24.3-.9,6,2.9,9.2,5.9,15.2,14.9,5,7.4,5.4,7.9,8.7,9.3,7.2,3.2,21.6,5.1,30.5,4,14.7-1.8,26.2-7.4,29.8-14.4,1.7-3.4,2.2-10.7.8-13.5-1.2-2.6-10.3-10.7-14-12.6-3.6-1.8-8.9-3.2-23.2-6.1-22.8-4.6-34.5-9.7-47-20.3-10.6-9.1-17.8-21.1-22.1-36.8-1.4-5.2-1.5-6.5-1.6-18.6,0-13.9.4-17.5,3.6-27.6,1.9-6.1,7.7-17.9,10.8-21.9,6.1-7.9,23.4-22.9,33.7-29.2l5.3-3.3.2-16.5,2.3-4.6c8.3-16.8,29.2-20.8,42.8-8.2,5.2,4.8,7.7,10.2,9.4,20.4l1,5.9,3,1c1.7.6,5.4,2.2,8.2,3.6,21.8,10.6,37.1,29.7,38.3,47.7.6,8.8-2.1,16.3-8,22-11,10.5-26.7,10.5-37.6.2-3.5-3.4-5.4-6.1-7.2-11-1.4-3.9-4.3-6.9-8.9-9.1-6-3-12.3-4-17.2-2.6-4.1,1.1-19.5,13.7-22,18-1.8,3.1-3.3,9.6-3.4,14.7,0,8.4,2.9,13.8,9.4,17.2,4.8,2.5,7.7,3.3,21.4,6.1,29.6,6,39.6,10.9,57.7,28.5,14,13.6,17.9,21,20.2,38.5.9,7.1.4,20-1.2,26.6-4.8,20.8-17.5,37.2-37.5,48.1l-5,2.7.4,6.3c.6,9.9-1.7,16.7-7.8,22.9-7,7.1-18,9.7-27.5,6.5-9.6-3.3-16.2-10.8-18.5-21Z"/>
    <path class="st0" d="M393.5,303.3c-3.8-8-5.4-17.6-11.5-68.8-1.7-14.4-2.6-21.8-4.7-38-1.6-12.5-2.6-21.1-3-25-.5-5-1-6.3-1.8-5.2-2.3,2.8-13,24.9-16.3,33.8-6.2,16.1-15,24.9-27.1,27-8.3,1.4-18.1-2.1-25.1-9-5.3-5.3-6.8-7.6-15.7-25-4.3-8.4-8.2-15.7-8.6-16.1-.7-.7-.8,0-1.1,3.5-.6,7.2-1.5,28.6-2.8,61.2-1.5,38.3-2,47.9-3.3,52.6-3.1,11.8-11.7,20.6-22.5,22.9-4.9,1-12.5.4-17.7-1.4-6.3-2.2-10.4-4.8-15.7-10.1-9.1-9-13.3-20-12.4-32.1.2-2.8.8-10.1,1.3-16.2.5-6.2,1.5-21.7,2.4-34.5.8-12.8,2.1-32.4,2.9-43.6.8-11.2,2.1-32,2.9-46.3s1.7-29.5,2-33.9.7-11.9,1-16.8c.7-14.4,3.5-22.8,10.4-30.1,15.2-16.3,33.8-18.1,48.1-4.6,6.3,5.9,16.3,19.7,27.7,38.3,3,4.9,6.7,10.8,8.3,13.3s4.3,7,6.2,10.2c1.9,3.2,3.6,5.6,3.9,5.3.3-.3,2.3-3.4,4.4-7,10.4-17.2,34.3-50.3,41.3-57.3,6.6-6.5,14.4-9.5,23.7-8.8,15.4,1,28.5,12.4,34.5,30,1.8,5.3,3,12.2,6.4,35.5,3.7,25.7,3.5,24.1,11,112.8,1.6,19.3,3.5,39.4,4.3,44.8,1.5,11.4,1.8,24,.5,28.6-1.4,5-5.4,12.1-9.1,16-7.4,7.9-15.7,11.3-24.9,10.1-8.1-1-15.5-7-19.7-15.9Z"/>
    <path class="st0" d="M484.4,270.3c-7.3-11.6-13.5-27.6-16.7-43-5.6-26.9-5.6-66.2,0-94.3,6-30.4,20.7-53.6,43.1-68.4,15.8-10.4,31.6-15.2,49.6-15.2,25.8,0,49.3,10.7,69.3,31.3,10.2,10.5,15.6,19,17.6,27.6,1.3,5.5,1.2,14.1-.2,19.7-4.7,18.3-23,29-42.7,24.8-7.8-1.6-13.2-4.8-22.1-12.9-12.3-11.1-23.5-13.4-35.7-7.5-20.8,10.2-32,41.4-25.9,71.9,3.7,18.4,14.5,36.3,26.9,44.5,12.2,8.1,22.6,7.8,34.5-1,8-5.9,15.6-8.5,24.9-8.4,10.4.1,17.5,3,24.2,9.8,12.2,12.4,11.7,33.5-1.2,46.3-12.2,12.1-33.8,21.8-51.8,23.3-2.4.2-5.5.4-6.8.6-1.3.1-5.2,0-8.7-.3-30.8-2.2-60.7-20.9-78.2-48.9Z"/>
    <path class="st0" d="M670.4,294.4c-.7-2.9-.9-11.5-1.2-50.1-.4-72.9-1.5-118.4-3-132.3-.2-1.8-.9-5.4-1.5-8s-1.1-6.2-1.1-8c0-10.3,4.9-21.5,12.7-28.9,4.6-4.3,7.8-6.3,13.5-8.3,5.5-1.9,11.8-2.2,16.7-.7,3.1.9,3.1.9,7.3-.8,6.3-2.6,16.5-5.8,22.2-6.9,7.1-1.4,19.4-1.8,26.1-.9,10.1,1.4,21.7,4.9,31.7,9.6,24.3,11.4,44.7,33.4,57.1,61.7,5.4,12.3,11.4,33.6,13.3,47.3,1.3,9.2.8,26-.9,34.3-3,14-9.5,29.6-17.1,41.1-13.8,20.9-29.8,34.6-55.4,47.5-14.5,7.3-24.5,11.5-42.1,17.4-15,5.1-15.5,5.2-21.8,5.4-5.7.2-6.9.4-10,1.9-7.1,3.5-15.4,4.4-22.9,2.6-11.1-2.7-20.8-12.6-23.6-24.1ZM742.7,239.6c9.1-3.5,23.9-11.1,30.5-15.4,13.1-8.7,22.1-21.5,25.7-36.5,1.7-7.1,0-19.7-4.6-33.7-5.8-18-14.3-27.8-27.2-31.8-9.8-3-15.9-2.8-27.2.6l-5.9,1.8v24.3c.2,13.3.6,33.8.9,45.5.3,11.7.6,27.1.6,34.3,0,11.3,0,13.1.9,13.1.5,0,3.3-1,6.3-2.1Z"/>
    <path class="st0" d="M976.3,318.9c-11.8-1.5-22.8-5.9-34.1-13.5-7.1-4.9-16.7-13.7-22.4-20.8-14.2-17.7-26.5-47.7-32.3-79-3.4-18.5-6.9-52.3-9.2-89.3-2.3-38.1-2.2-40.4,2.2-49.5,2.8-5.7,9.5-12.5,14.8-15.2,13-6.4,27.6-3.9,37.8,6.5,4.5,4.6,8,11.4,8.8,17.3.6,3.9,1.5,18.2,3,44.8,1.4,24.6,5.2,60.1,8,74.8,3.6,18.6,12.1,39.8,19.2,47.8,4.2,4.7,9.5,8.6,11.8,8.6,5.8,0,13.1-9.3,17.1-21.5,5.2-16.1,7.3-34.6,6.6-58-.7-22.6-2.7-62.7-3.6-71.7-1.7-16.9-1-25.3,2.7-32.6,3.7-7.4,10.5-13.5,18.2-16.3,4.8-1.8,13.2-2.4,17.8-1.3,11.8,2.7,21.9,12.7,24.9,24.5,1.1,4.2,3,25.1,3.8,40.9.3,6.3.9,18,1.3,25.9,1,19.4,1,55.4,0,64.5-4.7,43.2-15.1,69.8-35.2,90.1-17.7,17.8-39.4,26-61.4,23.2h0Z"/>
    <path class="st0" d="M1117.4,315c-8.6-4.3-15.5-13.8-17.4-23.8-.3-1.5-.7-46.4-.9-99.9-.2-53.5-.6-98.5-.9-100.2-2.3-12.9.3-23.2,8.1-31.6,12.3-13.3,30.7-15.2,45-4.6,8.3,6.1,12.5,14.2,14.5,28,1.1,7.4,1.2,10.5,1,30-.1,12-.4,48.2-.6,80.5l-.4,58.7,1.4.3c.8.2,12,.4,25,.5,19.1.2,24.3.4,27.2,1.2,16.6,4.3,27.2,19,25.5,35.6-.3,2.5-.9,5.8-1.4,7.2-3.9,10.8-12.9,18.9-24,21.5-3.1.7-8.7.9-32.6.8-15.9,0-35.9-.3-44.5-.5-16.8-.4-18.8-.7-25.1-3.9Z"/>
    <path class="st0" d="M1276.6,315c-8.6-4.3-15.5-13.8-17.4-23.8-.3-1.5-.7-46.4-.9-99.9-.2-53.5-.6-98.5-.9-100.2-2.3-12.9.3-23.2,8.1-31.6,12.3-13.3,30.7-15.2,45-4.6,8.3,6.1,12.5,14.2,14.5,28,1.1,7.4,1.2,10.5,1,30-.1,12-.4,48.2-.6,80.5l-.4,58.7,1.4.3c.8.2,12,.4,25,.5,19.1.2,24.3.4,27.2,1.2,16.6,4.3,27.2,19,25.5,35.6-.3,2.5-.9,5.8-1.4,7.2-3.9,10.8-12.9,18.9-24,21.5-3.1.7-8.7.9-32.6.8-15.9,0-35.9-.3-44.5-.5-16.8-.4-18.8-.7-25.1-3.9Z"/>
  </g>
  <g>
    <path class="st1" d="M83.7,302.9c-1.1-4.7-.6-4.4-8.2-5-11.6-.9-26.8-5-36.5-9.8-12.5-6.2-18.1-11.6-28.2-26.5-5.5-8.1-7.2-12-8-17.9-1.5-10.9,3.9-21.9,13.5-27.5,7-4.1,16.8-4.4,24.3-.9,6,2.9,9.2,5.9,15.2,14.9,5,7.4,5.4,7.9,8.7,9.3,7.2,3.2,21.6,5.1,30.5,4,14.7-1.8,26.2-7.4,29.8-14.4,1.7-3.4,2.2-10.7.8-13.5-1.2-2.6-10.3-10.7-14-12.6-3.6-1.8-8.9-3.2-23.2-6.1-22.8-4.6-34.5-9.7-47-20.3-10.6-9.1-17.8-21.1-22.1-36.8-1.4-5.2-1.5-6.5-1.6-18.6,0-13.9.4-17.5,3.6-27.6,1.9-6.1,7.7-17.9,10.8-21.9,6.1-7.9,23.4-22.9,33.7-29.2l5.3-3.3.2-16.5,2.3-4.6C81.9,1.3,102.8-2.7,116.5,9.9c5.2,4.8,7.7,10.2,9.4,20.4l1,5.9,3,1c1.7.6,5.4,2.2,8.2,3.6,21.8,10.6,37.1,29.7,38.3,47.7.6,8.8-2.1,16.3-8,22-11,10.5-26.7,10.5-37.6.2-3.5-3.4-5.4-6.1-7.2-11-1.4-3.9-4.3-6.9-8.9-9.1-6-3-12.3-4-17.2-2.6-4.1,1.1-19.5,13.7-22,18-1.8,3.1-3.3,9.6-3.4,14.7,0,8.4,2.9,13.8,9.4,17.2,4.8,2.5,7.7,3.3,21.4,6.1,29.6,6,39.6,10.9,57.7,28.5,14,13.6,17.9,21,20.2,38.5.9,7.1.4,20-1.2,26.6-4.8,20.8-17.5,37.2-37.5,48.1l-5,2.7.4,6.3c.6,9.9-1.7,16.7-7.8,22.9-7,7.1-18,9.7-27.5,6.5-9.6-3.3-16.2-10.8-18.5-21Z"/>
    <path class="st1" d="M393.5,280.3c-3.8-8-5.4-17.6-11.5-68.8-1.7-14.4-2.6-21.8-4.7-38-1.6-12.5-2.6-21.1-3-25-.5-5-1-6.3-1.8-5.2-2.3,2.8-13,24.9-16.3,33.8-6.2,16.1-15,24.9-27.1,27-8.3,1.4-18.1-2.1-25.1-9-5.3-5.3-6.8-7.6-15.7-25-4.3-8.4-8.2-15.7-8.6-16.1-.7-.7-.8,0-1.1,3.5-.6,7.2-1.5,28.6-2.8,61.2-1.5,38.3-2,47.9-3.3,52.6-3.1,11.8-11.7,20.6-22.5,22.9-4.9,1-12.5.4-17.7-1.4-6.3-2.2-10.4-4.8-15.7-10.1-9.1-9-13.3-20-12.4-32.1.2-2.8.8-10.1,1.3-16.2.5-6.2,1.5-21.7,2.4-34.5.8-12.8,2.1-32.4,2.9-43.6.8-11.2,2.1-32,2.9-46.3s1.7-29.5,2-33.9.7-11.9,1-16.8c.7-14.4,3.5-22.8,10.4-30.1,15.2-16.3,33.8-18.1,48.1-4.6,6.3,5.9,16.3,19.7,27.7,38.3,3,4.9,6.7,10.8,8.3,13.3s4.3,7,6.2,10.2c1.9,3.2,3.6,5.6,3.9,5.3.3-.3,2.3-3.4,4.4-7,10.4-17.2,34.3-50.3,41.3-57.3,6.6-6.5,14.4-9.5,23.7-8.8,15.4,1,28.5,12.4,34.5,30,1.8,5.3,3,12.2,6.4,35.5,3.7,25.7,3.5,24.1,11,112.8,1.6,19.3,3.5,39.4,4.3,44.8,1.5,11.4,1.8,24,.5,28.6-1.4,5-5.4,12.1-9.1,16-7.4,7.9-15.7,11.3-24.9,10.1-8.1-1-15.5-7-19.7-15.9Z"/>
    <path class="st1" d="M484.4,247.3c-7.3-11.6-13.5-27.6-16.7-43-5.6-26.9-5.6-66.2,0-94.3,6-30.4,20.7-53.6,43.1-68.4,15.8-10.4,31.6-15.2,49.6-15.2,25.8,0,49.3,10.7,69.3,31.3,10.2,10.5,15.6,19,17.6,27.6,1.3,5.5,1.2,14.1-.2,19.7-4.7,18.3-23,29-42.7,24.8-7.8-1.6-13.2-4.8-22.1-12.9-12.3-11.1-23.5-13.4-35.7-7.5-20.8,10.2-32,41.4-25.9,71.9,3.7,18.4,14.5,36.3,26.9,44.5,12.2,8.1,22.6,7.8,34.5-1,8-5.9,15.6-8.5,24.9-8.4,10.4.1,17.5,3,24.2,9.8,12.2,12.4,11.7,33.5-1.2,46.3-12.2,12.1-33.8,21.8-51.8,23.3-2.4.2-5.5.4-6.8.6-1.3.1-5.2,0-8.7-.3-30.8-2.2-60.7-20.9-78.2-48.9Z"/>
    <path class="st1" d="M670.4,271.4c-.7-2.9-.9-11.5-1.2-50.1-.4-72.9-1.5-118.4-3-132.3-.2-1.8-.9-5.4-1.5-8s-1.1-6.2-1.1-8c0-10.3,4.9-21.5,12.7-28.9,4.6-4.3,7.8-6.3,13.5-8.3,5.5-1.9,11.8-2.2,16.7-.7,3.1.9,3.1.9,7.3-.8,6.3-2.6,16.5-5.8,22.2-6.9,7.1-1.4,19.4-1.8,26.1-.9,10.1,1.4,21.7,4.9,31.7,9.6,24.3,11.4,44.7,33.4,57.1,61.7,5.4,12.3,11.4,33.6,13.3,47.3,1.3,9.2.8,26-.9,34.3-3,14-9.5,29.6-17.1,41.1-13.8,20.9-29.8,34.6-55.4,47.5-14.5,7.3-24.5,11.5-42.1,17.4-15,5.1-15.5,5.2-21.8,5.4-5.7.2-6.9.4-10,1.9-7.1,3.5-15.4,4.4-22.9,2.6-11.1-2.7-20.8-12.6-23.6-24.1ZM742.7,216.6c9.1-3.5,23.9-11.1,30.5-15.4,13.1-8.7,22.1-21.5,25.7-36.5,1.7-7.1,0-19.7-4.6-33.7-5.8-18-14.3-27.8-27.2-31.8-9.8-3-15.9-2.8-27.2.6l-5.9,1.8v24.3c.2,13.3.6,33.8.9,45.5.3,11.7.6,27.1.6,34.3,0,11.3,0,13.1.9,13.1.5,0,3.3-1,6.3-2.1Z"/>
    <path class="st1" d="M976.3,295.9c-11.8-1.5-22.8-5.9-34.1-13.5-7.1-4.9-16.7-13.7-22.4-20.8-14.2-17.7-26.5-47.7-32.3-79-3.4-18.5-6.9-52.3-9.2-89.3-2.3-38.1-2.2-40.4,2.2-49.5,2.8-5.7,9.5-12.5,14.8-15.2,13-6.4,27.6-3.9,37.8,6.5,4.5,4.6,8,11.4,8.8,17.3.6,3.9,1.5,18.2,3,44.8,1.4,24.6,5.2,60.1,8,74.8,3.6,18.6,12.1,39.8,19.2,47.8,4.2,4.7,9.5,8.6,11.8,8.6,5.8,0,13.1-9.3,17.1-21.5,5.2-16.1,7.3-34.6,6.6-58-.7-22.6-2.7-62.7-3.6-71.7-1.7-16.9-1-25.3,2.7-32.6,3.7-7.4,10.5-13.5,18.2-16.3,4.8-1.8,13.2-2.4,17.8-1.3,11.8,2.7,21.9,12.7,24.9,24.5,1.1,4.2,3,25.1,3.8,40.9.3,6.3.9,18,1.3,25.9,1,19.4,1,55.4,0,64.5-4.7,43.2-15.1,69.8-35.2,90.1-17.7,17.8-39.4,26-61.4,23.2h0Z"/>
    <path class="st1" d="M1117.4,292c-8.6-4.3-15.5-13.8-17.4-23.8-.3-1.5-.7-46.4-.9-99.9-.2-53.5-.6-98.5-.9-100.2-2.3-12.9.3-23.2,8.1-31.6,12.3-13.3,30.7-15.2,45-4.6,8.3,6.1,12.5,14.2,14.5,28,1.1,7.4,1.2,10.5,1,30-.1,12-.4,48.2-.6,80.5l-.4,58.7,1.4.3c.8.2,12,.4,25,.5,19.1.2,24.3.4,27.2,1.2,16.6,4.3,27.2,19,25.5,35.6-.3,2.5-.9,5.8-1.4,7.2-3.9,10.8-12.9,18.9-24,21.5-3.1.7-8.7.9-32.6.8-15.9,0-35.9-.3-44.5-.5-16.8-.4-18.8-.7-25.1-3.9Z"/>
    <path class="st1" d="M1276.6,292c-8.6-4.3-15.5-13.8-17.4-23.8-.3-1.5-.7-46.4-.9-99.9-.2-53.5-.6-98.5-.9-100.2-2.3-12.9.3-23.2,8.1-31.6,12.3-13.3,30.7-15.2,45-4.6,8.3,6.1,12.5,14.2,14.5,28,1.1,7.4,1.2,10.5,1,30-.1,12-.4,48.2-.6,80.5l-.4,58.7,1.4.3c.8.2,12,.4,25,.5,19.1.2,24.3.4,27.2,1.2,16.6,4.3,27.2,19,25.5,35.6-.3,2.5-.9,5.8-1.4,7.2-3.9,10.8-12.9,18.9-24,21.5-3.1.7-8.7.9-32.6.8-15.9,0-35.9-.3-44.5-.5-16.8-.4-18.8-.7-25.1-3.9Z"/>
  </g>
</svg>