<?xml version="1.0" encoding="UTF-8"?>
<svg id="Calque_1" xmlns="http://www.w3.org/2000/svg" version="1.1" viewBox="0 0 864 884">
  <!-- Generator: Adobe Illustrator 29.0.0, SVG Export Plug-In . SVG Version: 2.1.0 Build 186)  -->
  <defs>
    <style>
      .st0 {
        stroke: #000;
        stroke-miterlimit: 10;
        stroke-width: 5px;
      }

      .st1 {
        fill: #f8ff71;
      }

      .st2 {
        fill: #7bd7ef;
      }

      .st3 {
        fill: #d542f4;
      }

      .st4 {
        fill: #ffc166;
      }

      .st5 {
        fill: #ff6cb9;
      }
    </style>
  </defs>
  <path class="st0" d="M432,22.5C194.8,22.5,2.5,214.8,2.5,452s192.3,429.5,429.5,429.5,429.5-192.3,429.5-429.5S669.2,22.5,432,22.5ZM432,585c-73.5,0-133-59.5-133-133s59.5-133,133-133,133,59.5,133,133-59.5,133-133,133Z"/>
  <path class="st5" d="M432,2.5C194.8,2.5,2.5,194.8,2.5,432s192.3,429.5,429.5,429.5,429.5-192.3,429.5-429.5S669.2,2.5,432,2.5ZM432,565c-73.5,0-133-59.5-133-133s59.5-133,133-133,133,59.5,133,133-59.5,133-133,133Z"/>
  <path class="st4" d="M128,128.5l209.7,209.7c7.9-8,16.9-15,26.7-20.7L214.1,61.8c-31.5,18.6-60.4,41-86,66.7Z"/>
  <path class="st1" d="M316.5,366c5.8-10.2,13-19.6,21.2-27.8l-209.7-209.7h0c-26.6,26.6-49.7,56.7-68.6,89.6l257,147.9Z"/>
  <path class="st2" d="M382.2,308.6L270.8,33.8c-19.7,8-38.6,17.3-56.7,28h0l150.5,255.5c5.6-3.3,11.5-6.2,17.6-8.7Z"/>
  <path class="st3" d="M270.8,33.8l111.2,275c15.4-6.3,32.3-9.7,50-9.7V2.5c-57,0-111.5,11.1-161.2,31.3h0Z"/>
  <path d="M432,864c-58.3,0-114.9-11.4-168.2-34-51.4-21.8-97.6-52.9-137.3-92.6-39.7-39.7-70.8-85.9-92.6-137.3C11.4,546.9,0,490.3,0,432s11.4-114.9,33.9-168.2c21.8-51.4,52.9-97.6,92.6-137.3s85.9-70.8,137.3-92.6C317.1,11.4,373.7,0,432,0s114.9,11.4,168.2,33.9c51.4,21.8,97.6,52.9,137.3,92.6,39.7,39.7,70.8,85.9,92.6,137.3,22.5,53.3,34,109.8,34,168.2s-11.4,114.9-34,168.2c-21.8,51.4-52.9,97.6-92.6,137.3-39.7,39.7-85.9,70.8-137.3,92.6-53.3,22.5-109.8,34-168.2,34ZM432,5C196.6,5,5,196.6,5,432s191.6,427,427,427,427-191.6,427-427S667.4,5,432,5ZM432,567.5c-74.7,0-135.5-60.8-135.5-135.5s60.8-135.5,135.5-135.5,135.5,60.8,135.5,135.5-60.8,135.5-135.5,135.5ZM432,301.5c-72,0-130.5,58.5-130.5,130.5s58.5,130.5,130.5,130.5,130.5-58.5,130.5-130.5-58.5-130.5-130.5-130.5Z"/>
</svg>