<?xml version="1.0" encoding="utf-8"?>
<!-- Generator: Adobe Illustrator 27.9.6, SVG Export Plug-In . SVG Version: 9.03 Build 54986)  -->
<svg version="1.1" id="Calque_1" xmlns="http://www.w3.org/2000/svg" xmlns:xlink="http://www.w3.org/1999/xlink" x="0px" y="0px"
	 viewBox="0 0 3608.5 290.4" style="enable-background:new 0 0 3608.5 290.4;" xml:space="preserve">
<style type="text/css">
	.st0{fill:#439D6C;}
	.st1{fill:#1D1D1B;}
</style>
<g>
	<g>
		<polygon class="st0" points="1274.1,290.4 1274.1,115.7 1249.3,115.7 1249.3,71.6 1227.3,71.6 1227.3,112.9 1202.4,112.9 
			1202.4,290.4 		"/>
		<polygon class="st0" points="1377.3,290.4 1364.8,110.2 1340.3,110.2 1340.3,68.8 1318.3,68.8 1318.3,110.2 1301.6,110.2 
			1305.6,290.4 		"/>
		<polygon class="st0" points="1173,290.4 1180.8,71.6 1161.1,71.6 1161.1,33.2 1145.8,32.3 1143.5,67.4 1122.2,66.5 1107.7,290.4 
					"/>
		<polygon class="st0" points="1010.8,290.4 1074.7,290.4 1070.5,132.2 1046.1,132.2 1043.8,79.4 1022.2,80.3 1025.9,132.2 
			1004.7,132.2 		"/>
		<polygon class="st0" points="1769.7,290.4 1790.8,40.8 1769.7,39.4 1774.3,4 1759.1,1.7 1751.8,35.3 1731.1,33 1702.5,290.4 		"/>
		<polygon class="st0" points="1405,290.4 1469.8,290.4 1443.8,53.6 1422.6,58.7 1413.9,24.2 1399.2,28.4 1405.6,60.5 1384.9,68.4 
					"/>
		<polygon class="st0" points="976.3,290.4 976.3,93.6 951.4,93.6 951.4,55 929.4,55 929.4,93.6 907.3,93.6 907.3,290.4 		"/>
		<polygon class="st0" points="1674.1,290.4 1674.1,96.4 1652,96.4 1652,44 1627.2,44 1627.2,96.4 1607.9,96.4 1607.9,290.4 		"/>
		<polygon class="st0" points="1566.5,290.4 1566.5,115.7 1544.4,115.7 1544.4,66.1 1522.4,66.1 1522.4,115.7 1500.3,115.7 
			1500.3,290.4 		"/>
		<polygon class="st0" points="885.2,290.4 885.2,93.6 863.2,93.6 863.2,55 841.1,55 841.1,93.6 816.3,93.6 816.3,290.4 		"/>
		<polygon class="st0" points="781.8,290.4 787.9,132.2 766.6,132.2 770.3,80.3 748.7,79.4 746.4,132.2 722,132.2 717.8,290.4 		"/>
		<polygon class="st0" points="387.5,290.4 407.6,68.4 386.9,60.5 393.4,28.4 378.6,24.2 369.9,58.7 348.8,53.6 322.7,290.4 		"/>
		<polygon class="st0" points="292.2,290.4 292.2,115.7 270.2,115.7 270.2,66.1 248.1,66.1 248.1,115.7 226,115.7 226,290.4 		"/>
		<polygon class="st0" points="22.8,290.4 90,290.4 61.4,33 40.8,35.3 33.4,1.7 18.2,4 22.8,39.4 1.7,40.8 		"/>
		<polygon class="st0" points="184.6,290.4 184.6,96.4 165.3,96.4 165.3,44 140.5,44 140.5,96.4 118.4,96.4 118.4,290.4 		"/>
		<polygon class="st0" points="487,290.4 491,110.2 474.3,110.2 474.3,68.8 452.2,68.8 452.2,110.2 427.7,110.2 415.3,290.4 		"/>
		<polygon class="st0" points="684.8,290.4 670.3,66.5 649,67.4 646.7,32.3 631.5,33.2 631.5,71.6 611.7,71.6 619.6,290.4 		"/>
		<polygon class="st0" points="590.1,290.4 590.1,112.9 565.3,112.9 565.3,71.6 543.2,71.6 543.2,115.7 518.4,115.7 518.4,290.4 		
			"/>
	</g>
</g>
<g>
	<polygon class="st1" points="1203.9,290.4 1203.9,114.4 1228.8,114.4 1228.8,73.1 1247.8,73.1 1247.8,117.2 1272.6,117.2 
		1272.6,290.4 1275.6,290.4 1275.6,114.2 1250.8,114.2 1250.8,70.1 1225.8,70.1 1225.8,111.4 1200.9,111.4 1200.9,290.4 	"/>
	<polygon class="st1" points="1109.1,290.4 1123.6,68 1144.9,69 1147.2,33.9 1159.6,34.6 1159.6,73.1 1179.2,73.1 1171.5,290.4 
		1174.5,290.4 1182.4,70.1 1162.6,70.1 1162.6,31.8 1144.4,30.7 1142.1,65.8 1120.9,64.9 1106.2,290.4 	"/>
	<polygon class="st1" points="1009.2,290.4 1012.3,290.4 1006.3,133.7 1027.5,133.7 1023.8,81.7 1042.4,80.9 1044.7,133.7 
		1069.1,133.7 1073.2,290.4 1076.2,290.4 1071.9,130.7 1047.6,130.7 1045.3,77.8 1020.6,78.9 1024.3,130.7 1003.1,130.7 	"/>
	<polygon class="st1" points="1307.1,290.4 1303.1,111.7 1319.8,111.7 1319.8,70.3 1338.8,70.3 1338.8,111.7 1363.5,111.7 
		1375.8,290.4 1378.7,290.4 1366.1,108.7 1341.8,108.7 1341.8,67.3 1316.8,67.3 1316.8,108.7 1300,108.7 1304,290.4 	"/>
	<polygon class="st1" points="1403.5,290.4 1406.6,290.4 1386.6,69.3 1407.3,61.5 1400.9,29.4 1412.8,26.1 1421.5,60.5 1442.5,55.5 
		1468.4,290.4 1471.2,290.4 1445,51.8 1423.7,56.9 1415,22.4 1397.4,27.3 1403.9,59.6 1383.3,67.4 	"/>
	<polygon class="st1" points="1703.9,290.4 1732.3,34.6 1753,36.9 1760.3,3.4 1772.6,5.3 1768,40.8 1789.2,42.2 1768.2,290.4 
		1771.2,290.4 1792.5,39.4 1771.4,38 1776,2.7 1758,0 1750.6,33.6 1729.8,31.3 1701,290.4 	"/>
	<polygon class="st1" points="908.8,290.4 908.8,95.1 930.9,95.1 930.9,56.5 949.9,56.5 949.9,95.1 974.8,95.1 974.8,290.4 
		977.8,290.4 977.8,92.1 952.9,92.1 952.9,53.5 927.9,53.5 927.9,92.1 905.8,92.1 905.8,290.4 	"/>
	<polygon class="st1" points="1501.8,290.4 1501.8,117.2 1523.9,117.2 1523.9,67.6 1542.9,67.6 1542.9,117.2 1565,117.2 1565,290.4 
		1568,290.4 1568,114.2 1545.9,114.2 1545.9,64.6 1520.9,64.6 1520.9,114.2 1498.8,114.2 1498.8,290.4 	"/>
	<polygon class="st1" points="1609.4,290.4 1609.4,97.9 1628.7,97.9 1628.7,45.5 1650.5,45.5 1650.5,97.9 1672.6,97.9 1672.6,290.4 
		1675.6,290.4 1675.6,94.9 1653.5,94.9 1653.5,42.5 1625.7,42.5 1625.7,94.9 1606.4,94.9 1606.4,290.4 	"/>
	<polygon class="st1" points="227.5,290.4 227.5,117.2 249.6,117.2 249.6,67.6 268.7,67.6 268.7,117.2 290.7,117.2 290.7,290.4 
		293.7,290.4 293.7,114.2 271.7,114.2 271.7,64.6 246.6,64.6 246.6,114.2 224.5,114.2 224.5,290.4 	"/>
	<polygon class="st1" points="119.9,290.4 119.9,97.9 142,97.9 142,45.5 163.8,45.5 163.8,97.9 183.1,97.9 183.1,290.4 186.1,290.4 
		186.1,94.9 166.8,94.9 166.8,42.5 139,42.5 139,94.9 116.9,94.9 116.9,290.4 	"/>
	<polygon class="st1" points="21.3,290.4 24.3,290.4 3.4,42.2 24.5,40.8 19.9,5.3 32.2,3.4 39.6,36.9 60.2,34.6 88.6,290.4 
		91.5,290.4 62.7,31.3 41.9,33.6 34.6,0 16.6,2.7 21.1,38 0,39.4 	"/>
	<polygon class="st1" points="817.8,290.4 817.8,95.1 842.6,95.1 842.6,56.5 861.7,56.5 861.7,95.1 883.7,95.1 883.7,290.4 
		886.7,290.4 886.7,92.1 864.7,92.1 864.7,53.5 839.6,53.5 839.6,92.1 814.8,92.1 814.8,290.4 	"/>
	<polygon class="st1" points="324.2,290.4 350,55.5 371,60.5 379.7,26.1 391.6,29.4 385.2,61.5 406,69.3 385.9,290.4 389.1,290.4 
		409.2,67.4 388.6,59.6 395.1,27.3 377.6,22.4 368.8,56.9 347.5,51.8 321.3,290.4 	"/>
	<polygon class="st1" points="416.7,290.4 429.1,111.7 453.7,111.7 453.7,70.3 472.8,70.3 472.8,111.7 489.4,111.7 485.5,290.4 
		488.5,290.4 492.5,108.7 475.8,108.7 475.8,67.3 450.7,67.3 450.7,108.7 426.4,108.7 413.8,290.4 	"/>
	<polygon class="st1" points="621.1,290.4 613.3,73.1 633,73.1 633,34.6 645.3,33.9 647.6,69 668.9,68 683.4,290.4 686.3,290.4 
		671.7,64.9 650.4,65.8 648.1,30.7 630,31.8 630,70.1 610.1,70.1 618,290.4 	"/>
	<polygon class="st1" points="719.3,290.4 723.5,133.7 747.8,133.7 750.1,80.9 768.7,81.7 765,133.7 786.2,133.7 780.2,290.4 
		783.3,290.4 789.5,130.7 768.2,130.7 771.9,78.9 747.3,77.8 745,130.7 720.6,130.7 716.4,290.4 	"/>
	<polygon class="st1" points="519.9,290.4 519.9,117.2 544.7,117.2 544.7,73.1 563.8,73.1 563.8,114.4 588.6,114.4 588.6,290.4 
		591.6,290.4 591.6,111.4 566.8,111.4 566.8,70.1 541.7,70.1 541.7,114.2 516.9,114.2 516.9,290.4 	"/>
</g>
<g>
	<g>
		<polygon class="st0" points="2334.4,290.4 2334.4,115.7 2359.2,115.7 2359.2,71.6 2381.3,71.6 2381.3,112.9 2406.1,112.9 
			2406.1,290.4 		"/>
		<polygon class="st0" points="2231.3,290.4 2243.7,110.2 2268.2,110.2 2268.2,68.8 2290.3,68.8 2290.3,110.2 2307,110.2 
			2303,290.4 		"/>
		<polygon class="st0" points="2435.6,290.4 2427.7,71.6 2447.5,71.6 2447.5,33.2 2462.7,32.3 2465,67.4 2486.3,66.5 2500.8,290.4 
					"/>
		<polygon class="st0" points="2597.8,290.4 2533.8,290.4 2538,132.2 2562.4,132.2 2564.7,79.4 2586.3,80.3 2582.6,132.2 
			2603.9,132.2 		"/>
		<polygon class="st0" points="1838.8,290.4 1817.7,40.8 1838.8,39.4 1834.2,4 1849.4,1.7 1856.8,35.3 1877.4,33 1906,290.4 		"/>
		<polygon class="st0" points="2203.5,290.4 2138.7,290.4 2164.8,53.6 2185.9,58.7 2194.6,24.2 2209.4,28.4 2202.9,60.5 
			2223.6,68.4 		"/>
		<polygon class="st0" points="2632.3,290.4 2632.3,93.6 2657.1,93.6 2657.1,55 2679.2,55 2679.2,93.6 2701.2,93.6 2701.2,290.4 		
			"/>
		<polygon class="st0" points="1934.4,290.4 1934.4,96.4 1956.5,96.4 1956.5,44 1981.3,44 1981.3,96.4 2000.6,96.4 2000.6,290.4 		
			"/>
		<polygon class="st0" points="2042,290.4 2042,115.7 2064.1,115.7 2064.1,66.1 2086.2,66.1 2086.2,115.7 2108.2,115.7 
			2108.2,290.4 		"/>
		<polygon class="st0" points="2723.3,290.4 2723.3,93.6 2745.4,93.6 2745.4,55 2767.4,55 2767.4,93.6 2792.3,93.6 2792.3,290.4 		
			"/>
		<polygon class="st0" points="2826.8,290.4 2820.7,132.2 2841.9,132.2 2838.2,80.3 2859.8,79.4 2862.1,132.2 2886.5,132.2 
			2890.7,290.4 		"/>
		<polygon class="st0" points="3221,290.4 3200.9,68.4 3221.6,60.5 3215.2,28.4 3229.9,24.2 3238.6,58.7 3259.8,53.6 3285.8,290.4 
					"/>
		<polygon class="st0" points="3316.3,290.4 3316.3,115.7 3338.4,115.7 3338.4,66.1 3360.4,66.1 3360.4,115.7 3382.5,115.7 
			3382.5,290.4 		"/>
		<polygon class="st0" points="3585.7,290.4 3518.5,290.4 3547.1,33 3567.8,35.3 3575.1,1.7 3590.3,4 3585.7,39.4 3606.8,40.8 		"/>
		<polygon class="st0" points="3423.9,290.4 3423.9,96.4 3443.2,96.4 3443.2,44 3468,44 3468,96.4 3490.1,96.4 3490.1,290.4 		"/>
		<polygon class="st0" points="3121.6,290.4 3117.6,110.2 3134.3,110.2 3134.3,68.8 3156.3,68.8 3156.3,110.2 3180.8,110.2 
			3193.3,290.4 		"/>
		<polygon class="st0" points="2923.7,290.4 2938.2,66.5 2959.5,67.4 2961.8,32.3 2977.1,33.2 2977.1,71.6 2996.8,71.6 2989,290.4 
					"/>
		<polygon class="st0" points="3018.4,290.4 3018.4,112.9 3043.3,112.9 3043.3,71.6 3065.3,71.6 3065.3,115.7 3090.1,115.7 
			3090.1,290.4 		"/>
	</g>
</g>
<g>
	<polygon class="st1" points="2404.6,290.4 2404.6,114.4 2379.8,114.4 2379.8,73.1 2360.7,73.1 2360.7,117.2 2335.9,117.2 
		2335.9,290.4 2332.9,290.4 2332.9,114.2 2357.7,114.2 2357.7,70.1 2382.8,70.1 2382.8,111.4 2407.6,111.4 2407.6,290.4 	"/>
	<polygon class="st1" points="2499.4,290.4 2484.9,68 2463.6,69 2461.3,33.9 2449,34.6 2449,73.1 2429.3,73.1 2437.1,290.4 
		2434,290.4 2426.1,70.1 2446,70.1 2446,31.8 2464.1,30.7 2466.4,65.8 2487.7,64.9 2502.3,290.4 	"/>
	<polygon class="st1" points="2599.3,290.4 2596.2,290.4 2602.2,133.7 2581,133.7 2584.7,81.7 2566.1,80.9 2563.8,133.7 
		2539.5,133.7 2535.3,290.4 2532.4,290.4 2536.6,130.7 2561,130.7 2563.3,77.8 2587.9,78.9 2584.2,130.7 2605.5,130.7 	"/>
	<polygon class="st1" points="2301.5,290.4 2305.4,111.7 2288.8,111.7 2288.8,70.3 2269.7,70.3 2269.7,111.7 2245.1,111.7 
		2232.7,290.4 2229.8,290.4 2242.4,108.7 2266.7,108.7 2266.7,67.3 2291.8,67.3 2291.8,108.7 2308.5,108.7 2304.5,290.4 	"/>
	<polygon class="st1" points="2205.1,290.4 2201.9,290.4 2222,69.3 2201.2,61.5 2207.6,29.4 2195.7,26.1 2187,60.5 2166,55.5 
		2140.2,290.4 2137.3,290.4 2163.5,51.8 2184.8,56.9 2193.6,22.4 2211.1,27.3 2204.6,59.6 2225.2,67.4 	"/>
	<polygon class="st1" points="1904.6,290.4 1876.2,34.6 1855.6,36.9 1848.2,3.4 1835.9,5.3 1840.5,40.8 1819.4,42.2 1840.3,290.4 
		1837.3,290.4 1816,39.4 1837.1,38 1832.6,2.7 1850.6,0 1857.9,33.6 1878.7,31.3 1907.5,290.4 	"/>
	<polygon class="st1" points="2699.7,290.4 2699.7,95.1 2677.7,95.1 2677.7,56.5 2658.6,56.5 2658.6,95.1 2633.8,95.1 2633.8,290.4 
		2630.8,290.4 2630.8,92.1 2655.6,92.1 2655.6,53.5 2680.7,53.5 2680.7,92.1 2702.7,92.1 2702.7,290.4 	"/>
	<polygon class="st1" points="2106.7,290.4 2106.7,117.2 2084.7,117.2 2084.7,67.6 2065.6,67.6 2065.6,117.2 2043.5,117.2 
		2043.5,290.4 2040.5,290.4 2040.5,114.2 2062.6,114.2 2062.6,64.6 2087.7,64.6 2087.7,114.2 2109.7,114.2 2109.7,290.4 	"/>
	<polygon class="st1" points="1999.1,290.4 1999.1,97.9 1979.8,97.9 1979.8,45.5 1958,45.5 1958,97.9 1935.9,97.9 1935.9,290.4 
		1932.9,290.4 1932.9,94.9 1955,94.9 1955,42.5 1982.8,42.5 1982.8,94.9 2002.1,94.9 2002.1,290.4 	"/>
	<polygon class="st1" points="3381,290.4 3381,117.2 3358.9,117.2 3358.9,67.6 3339.9,67.6 3339.9,117.2 3317.8,117.2 3317.8,290.4 
		3314.8,290.4 3314.8,114.2 3336.9,114.2 3336.9,64.6 3361.9,64.6 3361.9,114.2 3384,114.2 3384,290.4 	"/>
	<polygon class="st1" points="3488.6,290.4 3488.6,97.9 3466.5,97.9 3466.5,45.5 3444.7,45.5 3444.7,97.9 3425.4,97.9 3425.4,290.4 
		3422.4,290.4 3422.4,94.9 3441.7,94.9 3441.7,42.5 3469.5,42.5 3469.5,94.9 3491.6,94.9 3491.6,290.4 	"/>
	<polygon class="st1" points="3587.2,290.4 3584.2,290.4 3605.2,42.2 3584,40.8 3588.6,5.3 3576.3,3.4 3568.9,36.9 3548.3,34.6 
		3519.9,290.4 3517,290.4 3545.8,31.3 3566.6,33.6 3574,0 3592,2.7 3587.4,38 3608.5,39.4 	"/>
	<polygon class="st1" points="2790.8,290.4 2790.8,95.1 2765.9,95.1 2765.9,56.5 2746.9,56.5 2746.9,95.1 2724.8,95.1 2724.8,290.4 
		2721.8,290.4 2721.8,92.1 2743.9,92.1 2743.9,53.5 2768.9,53.5 2768.9,92.1 2793.8,92.1 2793.8,290.4 	"/>
	<polygon class="st1" points="3284.4,290.4 3258.5,55.5 3237.5,60.5 3228.8,26.1 3216.9,29.4 3223.3,61.5 3202.6,69.3 3222.6,290.4 
		3219.5,290.4 3199.3,67.4 3219.9,59.6 3213.4,27.3 3231,22.4 3239.7,56.9 3261,51.8 3287.2,290.4 	"/>
	<polygon class="st1" points="3191.8,290.4 3179.5,111.7 3154.8,111.7 3154.8,70.3 3135.8,70.3 3135.8,111.7 3119.1,111.7 
		3123.1,290.4 3120,290.4 3116,108.7 3132.8,108.7 3132.8,67.3 3157.8,67.3 3157.8,108.7 3182.1,108.7 3194.7,290.4 	"/>
	<polygon class="st1" points="2987.5,290.4 2995.2,73.1 2975.6,73.1 2975.6,34.6 2963.2,33.9 2960.9,69 2939.6,68 2925.1,290.4 
		2922.2,290.4 2936.9,64.9 2958.1,65.8 2960.4,30.7 2978.6,31.8 2978.6,70.1 2998.4,70.1 2990.5,290.4 	"/>
	<polygon class="st1" points="2889.2,290.4 2885.1,133.7 2860.7,133.7 2858.4,80.9 2839.8,81.7 2843.5,133.7 2822.3,133.7 
		2828.3,290.4 2825.2,290.4 2819.1,130.7 2840.3,130.7 2836.6,78.9 2861.3,77.8 2863.6,130.7 2887.9,130.7 2892.2,290.4 	"/>
	<polygon class="st1" points="3088.6,290.4 3088.6,117.2 3063.8,117.2 3063.8,73.1 3044.8,73.1 3044.8,114.4 3019.9,114.4 
		3019.9,290.4 3016.9,290.4 3016.9,111.4 3041.8,111.4 3041.8,70.1 3066.8,70.1 3066.8,114.2 3091.6,114.2 3091.6,290.4 	"/>
</g>
</svg>
