<?xml version="1.0" encoding="utf-8"?>
<!-- Generator: Adobe Illustrator 27.9.6, SVG Export Plug-In . SVG Version: 9.03 Build 54986)  -->
<svg version="1.1" id="Calque_1" xmlns="http://www.w3.org/2000/svg" xmlns:xlink="http://www.w3.org/1999/xlink" x="0px" y="0px"
	 viewBox="0 0 3598 499.1" style="enable-background:new 0 0 3598 499.1;" xml:space="preserve">
<style type="text/css">
	.st0{fill:#AADC4A;}
	.st1{fill:#1D1D1B;}
</style>
<polygon class="st0" points="3578.3,248.1 3563.9,248.1 3569.4,210.9 3590.6,40.8 3569.4,39.4 3574,4 3558.9,1.7 3551.5,35.3 
	3530.8,33 3499.6,234.1 3474,234.1 3474,96.1 3452,96.1 3452,44.1 3427,44.1 3427,96.1 3407,96.1 3407,237.1 3366,237.1 3366,116.1 
	3344,116.1 3344,66.1 3322,66.1 3322,116.1 3300,116.1 3300,229.1 3271.5,229.1 3243.5,53.6 3222.4,58.7 3213.6,24.2 3198.9,28.4 
	3205.3,60.5 3184.7,68.4 3207.2,237.1 3178.8,237.1 3164.5,110.1 3140,110.1 3140,69.1 3118,69.1 3118,110.1 3101.2,110.1 
	3105.9,240.1 3074,240.1 3074,116.1 3049,116.1 3049,72.1 3027,72.1 3027,113.1 3002,113.1 3002,238.8 2971.9,234.3 2980.6,72.1 
	2961,72.1 2961,33.4 2945.8,32.4 2943.5,67.5 2922.3,66.5 2905.7,242.1 2875.8,242.1 2870.7,132.1 2845.8,132.1 2843.5,79.3 
	2822,80.2 2825.6,132.1 2804.4,132.1 2811.4,234.1 2776,234.1 2776,93.1 2751,93.1 2751,55.1 2729,55.1 2729,93.1 2707,93.1 
	2707,251.1 2696,251.1 2685,251.1 2685,94.1 2663,94.1 2663,55.1 2641,55.1 2641,94.1 2616,94.1 2616,234.1 2580.6,234.1 
	2587.6,132.1 2566.3,132.1 2570,80.3 2548.4,79.4 2546.1,132.1 2521.8,132.1 2516.8,242.1 2486.1,242.1 2469.6,67.1 2448.5,68 
	2446.2,33.1 2431,34 2431,72.1 2411.8,72.1 2420.6,234.3 2390,238.8 2390,113.1 2365,113.1 2365,72.1 2343,72.1 2343,116.1 
	2318,116.1 2318,240.1 2285.8,240.1 2290.5,110.1 2274,110.1 2274,69.1 2252,69.1 2252,110.1 2227.5,110.1 2213.2,237.1 
	2184.8,237.1 2207.3,68.4 2186.6,60.5 2193.1,28.4 2178.4,24.2 2169.6,58.7 2148.5,53.6 2120.4,229.1 2092,229.1 2092,116.1 
	2070,116.1 2070,66.1 2048,66.1 2048,116.1 2026,116.1 2026,237.1 1985,237.1 1985,96.1 1965,96.1 1965,44.1 1940,44.1 1940,96.1 
	1918,96.1 1918,234.1 1892.4,234.1 1861.2,33 1840.5,35.3 1833.1,1.7 1818,4 1822.6,39.4 1801.4,40.8 1822.6,210.9 1828.1,248.1 
	1799.3,248.1 1770.5,248.1 1776,210.9 1797.2,40.8 1776,39.4 1780.6,4 1765.5,1.7 1758.1,35.3 1737.4,33 1706.2,234.1 1680,234.1 
	1680,96.1 1658,96.1 1658,44.1 1633,44.1 1633,96.1 1614,96.1 1614,237.1 1573,237.1 1573,116.1 1551,116.1 1551,66.1 1529,66.1 
	1529,116.1 1507,116.1 1507,229.1 1478.2,229.1 1450.1,53.6 1429,58.7 1420.2,24.2 1405.5,28.4 1412,60.5 1391.3,68.4 1413.8,237.1 
	1385.4,237.1 1371.1,110.1 1347,110.1 1347,69.1 1325,69.1 1325,110.1 1308.2,110.1 1312.9,240.1 1281,240.1 1281,116.1 1256,116.1 
	1256,72.1 1234,72.1 1234,113.1 1209,113.1 1209,238.8 1178.9,234.3 1187.6,72.1 1168,72.1 1168,33.4 1152.8,32.4 1150.5,67.5 
	1129.3,66.5 1112.7,242.1 1082.8,242.1 1077.7,132.1 1052.5,132.1 1050.2,79.3 1028.6,80.2 1032.2,132.1 1011,132.1 1018,234.1 
	983,234.1 983,93.1 958,93.1 958,55.1 936,55.1 936,93.1 914,93.1 914,251.1 903,251.1 892,251.1 892,94.1 870,94.1 870,55.1 
	848,55.1 848,94.1 823,94.1 823,234.1 787.6,234.1 794.6,132.1 772.9,132.1 776.6,80.3 755,79.4 752.7,132.1 728.4,132.1 
	723.4,242.1 693.1,242.1 676.6,67.1 655.5,68 653.2,33.1 638,34 638,72.1 618.8,72.1 627.6,234.3 597,238.8 597,113.1 572,113.1 
	572,72.1 550,72.1 550,116.1 525,116.1 525,240.1 492.8,240.1 497.5,110.1 481,110.1 481,69.1 459,69.1 459,110.1 434.5,110.1 
	420.2,237.1 391.4,237.1 413.9,68.4 393.3,60.5 399.7,28.4 385,24.2 376.2,58.7 355.1,53.6 327.1,229.1 299,229.1 299,116.1 
	276,116.1 276,66.1 254,66.1 254,116.1 232,116.1 232,237.1 191,237.1 191,96.1 172,96.1 172,44.1 147,44.1 147,96.1 125,96.1 
	125,234.1 99,234.1 67.8,33 47.1,35.3 39.7,1.7 24.6,4 29.2,39.4 8,40.8 29.2,210.9 34.7,248.1 19.7,248.1 0,248.1 0,499.1 
	19.7,499.1 902.3,499.1 1799,499.1 2695.7,499.1 3578.3,499.1 3598,499.1 3598,248.1 "/>
<polygon class="st1" points="3565.7,247.1 3570.9,211.1 3592.3,39.4 3571.1,38 3575.7,2.7 3557.7,0 3550.3,33.6 3529.6,31.3 
	3498.3,233.1 3475,233.1 3475,95.1 3453,95.1 3453,43.1 3425,43.1 3425,95.1 3406,95.1 3406,236.1 3368,236.1 3368,114.1 
	3346,114.1 3346,64.1 3321,64.1 3321,114.1 3299,114.1 3299,227.1 3272.8,227.1 3244.7,51.8 3223.4,56.9 3214.7,22.4 3197.2,27.3 
	3203.6,59.6 3183,67.4 3205.5,236.1 3180.2,236.1 3165.9,109.1 3142,109.1 3142,67.1 3117,67.1 3117,108.1 3100.2,108.1 
	3104.8,238.1 3075,238.1 3075,114.1 3050,114.1 3050,70.1 3025,70.1 3025,111.1 3000,111.1 3000,236.6 2973,232.5 2981.7,70.1 
	2962,70.1 2962,32.5 2943.9,31.4 2941.6,66.4 2920.4,65.5 2903.8,241.1 2876.7,241.1 2871.6,131.1 2847.3,131.1 2845,78.2 
	2820.3,79.3 2824,131.1 2802.8,131.1 2809.8,233.1 2777,233.1 2777,92.1 2753,92.1 2753,53.1 2728,53.1 2728,92.1 2705,92.1 
	2705,249.1 2686,249.1 2686,92.1 2664,92.1 2664,53.1 2639,53.1 2639,92.1 2614,92.1 2614,233.1 2581.7,233.1 2588.7,131.1 
	2567.9,131.1 2571.6,79.4 2547,78.3 2544.7,131.1 2520.4,131.1 2515.4,241.1 2488.3,241.1 2471.7,65 2450.5,65.9 2448.2,30.7 
	2430,31.8 2430,70.1 2409.7,70.1 2418.5,232.5 2391,236.6 2391,111.1 2366,111.1 2366,70.1 2342,70.1 2342,114.1 2317,114.1 
	2317,238.1 2287.9,238.1 2292.6,108.1 2275,108.1 2275,67.1 2250,67.1 2250,109.1 2225.7,109.1 2211.4,236.1 2186.5,236.1 
	2209,67.4 2188.4,59.6 2194.8,27.3 2177.3,22.4 2168.5,56.9 2147.3,51.8 2119.2,227.1 2093,227.1 2093,114.1 2071,114.1 2071,64.1 
	2046,64.1 2046,114.1 2024,114.1 2024,235.1 1986,235.1 1986,95.1 1967,95.1 1967,43.1 1939,43.1 1939,95.1 1917,95.1 1917,233.1 
	1893.7,233.1 1862.4,31.3 1841.7,33.6 1834.3,0 1816.3,2.7 1820.9,38 1799.7,39.4 1821.1,211 1826.3,247.1 1799.3,247.1 
	1772.3,247.1 1777.5,211 1798.9,39.4 1777.7,38 1782.3,2.7 1764.3,0 1756.9,33.6 1736.2,31.3 1704.9,233.1 1682,233.1 1682,95.1 
	1660,95.1 1660,43.1 1632,43.1 1632,95.1 1613,95.1 1613,236.1 1575,236.1 1575,114.1 1552,114.1 1552,64.1 1527,64.1 1527,114.1 
	1505,114.1 1505,227.1 1479.4,227.1 1451.3,51.8 1430.1,56.9 1421.3,22.4 1403.8,27.3 1410.2,59.6 1389.6,67.4 1412.1,236.1 
	1386.8,236.1 1372.5,109.1 1348,109.1 1348,67.1 1323,67.1 1323,108.1 1306.2,108.1 1310.8,238.1 1282,238.1 1282,114.1 1257,114.1 
	1257,70.1 1232,70.1 1232,111.1 1207,111.1 1207,236.6 1180,232.5 1188.7,70.1 1169,70.1 1169,32.5 1150.9,31.4 1148.6,66.4 
	1127.4,65.5 1110.8,241.1 1083.7,241.1 1078.6,131.1 1053.9,131.1 1051.6,78.2 1027,79.3 1030.6,131.1 1009.4,131.1 1016.4,233.1 
	984,233.1 984,92.1 959,92.1 959,53.1 934,53.1 934,92.1 912,92.1 912,249.1 893,249.1 893,92.1 871,92.1 871,53.1 846,53.1 
	846,92.1 821,92.1 821,233.1 788.7,233.1 795.7,131.1 774.5,131.1 778.2,79.4 753.6,78.3 751.3,131.1 727,131.1 722,241.1 
	694.3,241.1 677.7,65 656.5,65.9 654.1,30.7 636,31.8 636,70.1 616.7,70.1 625.5,232.5 598,236.6 598,111.1 573,111.1 573,70.1 
	548,70.1 548,114.1 523,114.1 523,238.1 493.9,238.1 498.6,108.1 482,108.1 482,67.1 457,67.1 457,109.1 432.7,109.1 418.4,236.1 
	393.1,236.1 415.6,67.4 395,59.6 401.4,27.3 383.9,22.4 375.2,56.9 353.9,51.8 325.8,227.1 300,227.1 300,114.1 278,114.1 278,64.1 
	253,64.1 253,114.1 231,114.1 231,235.1 193,235.1 193,95.1 173,95.1 173,43.1 145,43.1 145,95.1 123,95.1 123,233.1 100.3,233.1 
	69,31.3 48.3,33.6 40.9,0 22.9,2.7 27.5,38 6.3,39.4 27.7,211.1 32.9,247.1 0,247.1 0,250.1 36.4,250.1 30.7,210.7 9.7,42.2 
	30.9,40.8 26.2,5.3 38.6,3.4 45.9,36.9 66.5,34.6 97.8,236.1 126,236.1 126,98.1 148,98.1 148,46.1 170,46.1 170,98.1 190,98.1 
	190,239.1 234,239.1 234,117.1 256,117.1 256,67.1 275,67.1 275,117.1 297,117.1 297,230.1 328.3,230.1 356.3,55.5 377.3,60.5 
	386.1,26.1 397.9,29.4 391.5,61.5 412.3,69.3 389.7,239.1 421.1,239.1 435.4,112.1 460,112.1 460,70.1 479,70.1 479,111.1 
	495.7,111.1 491,241.1 526,241.1 526,117.1 551,117.1 551,73.1 570,73.1 570,114.1 595,114.1 595,240.1 628.1,235.1 619.5,73.1 
	639,73.1 639,35.3 651.3,34.5 653.6,69.5 674.9,68.6 691.4,244.1 724.2,244.1 729.2,134.1 754.2,134.1 756.5,81.3 775,82.1 
	771.4,134.1 792.6,134.1 785.6,236.1 824,236.1 824,95.1 849,95.1 849,56.1 868,56.1 868,95.1 890,95.1 890,252.1 915,252.1 
	915,95.1 937,95.1 937,56.1 956,56.1 956,95.1 981,95.1 981,236.1 1019.5,236.1 1012.5,134.1 1033.9,134.1 1030.2,82.3 1048.8,81.5 
	1051,134.1 1075.3,134.1 1080.4,244.1 1113.4,244.1 1130,68.1 1151.3,69 1153.6,33.9 1166,34.7 1166,73.1 1185.1,73.1 1176.4,235.1 
	1210,240.1 1210,114.1 1235,114.1 1235,73.1 1254,73.1 1254,117.1 1279,117.1 1279,241.1 1314.2,241.1 1309.6,111.1 1326,111.1 
	1326,70.1 1345,70.1 1345,112.1 1369.6,112.1 1384,239.1 1415.5,239.1 1392.9,69.3 1413.7,61.5 1407.3,29.4 1419.2,26.1 
	1427.9,60.5 1448.9,55.5 1476.9,230.1 1508,230.1 1508,117.1 1530,117.1 1530,67.1 1549,67.1 1549,117.1 1572,117.1 1572,238.1 
	1616,238.1 1616,98.1 1635,98.1 1635,46.1 1657,46.1 1657,98.1 1679,98.1 1679,236.1 1707.4,236.1 1738.7,34.6 1759.3,36.9 
	1766.6,3.4 1779,5.3 1774.3,40.8 1795.5,42.2 1774.6,210.6 1768.8,250.1 1799.3,250.1 1829.8,250.1 1824,210.6 1803.1,42.2 
	1824.3,40.8 1819.6,5.3 1832,3.4 1839.3,36.9 1859.9,34.6 1891.1,236.1 1920,236.1 1920,98.1 1942,98.1 1942,46.1 1964,46.1 
	1964,98.1 1983,98.1 1983,239.1 2027,239.1 2027,117.1 2049,117.1 2049,67.1 2068,67.1 2068,117.1 2090,117.1 2090,230.1 
	2121.7,230.1 2149.7,55.5 2170.7,60.5 2179.4,26.1 2191.3,29.4 2184.9,61.5 2205.7,69.3 2183.1,239.1 2214.5,239.1 2228.8,112.1 
	2253,112.1 2253,70.1 2272,70.1 2272,111.1 2288.7,111.1 2284,241.1 2320,241.1 2320,117.1 2345,117.1 2345,73.1 2364,73.1 
	2364,114.1 2389,114.1 2389,240.1 2422.1,235.1 2413.5,73.1 2433,73.1 2433,35.3 2445.3,34.5 2447.6,69.5 2468.9,68.6 2485.4,244.1 
	2518.2,244.1 2523.2,134.1 2547.6,134.1 2549.9,81.3 2568.4,82.1 2564.7,134.1 2586,134.1 2579,236.1 2618,236.1 2618,95.1 
	2642,95.1 2642,56.1 2661,56.1 2661,95.1 2683,95.1 2683,252.1 2708,252.1 2708,95.1 2731,95.1 2731,56.1 2750,56.1 2750,95.1 
	2775,95.1 2775,236.1 2813.5,236.1 2806.5,134.1 2827.3,134.1 2823.6,82.3 2842.1,81.5 2844.4,134.1 2868.7,134.1 2873.8,244.1 
	2906.4,244.1 2923,68.1 2944.3,69 2946.6,33.9 2959,34.7 2959,73.1 2979.1,73.1 2970.4,235.1 3004,240.1 3004,114.1 3029,114.1 
	3029,73.1 3047,73.1 3047,117.1 3072,117.1 3072,241.1 3107.2,241.1 3102.6,111.1 3120,111.1 3120,70.1 3139,70.1 3139,112.1 
	3163.6,112.1 3178,239.1 3208.9,239.1 3186.3,69.3 3207.1,61.5 3200.7,29.4 3212.5,26.1 3221.3,60.5 3242.3,55.5 3270.3,230.1 
	3302,230.1 3302,117.1 3324,117.1 3324,67.1 3343,67.1 3343,117.1 3365,117.1 3365,238.1 3409,238.1 3409,98.1 3428,98.1 3428,46.1 
	3450,46.1 3450,98.1 3472,98.1 3472,236.1 3500.8,236.1 3532.1,34.6 3552.7,36.9 3560,3.4 3572.3,5.3 3567.7,40.8 3588.9,42.2 
	3567.9,210.7 3562.2,250.1 3598,250.1 3598,247.1 "/>
</svg>
