<?xml version="1.0" encoding="UTF-8"?>
<svg id="Layer_1" xmlns="http://www.w3.org/2000/svg" version="1.1" viewBox="0 0 800 800">
  <!-- Generator: Adobe Illustrator 29.0.0, SVG Export Plug-In . SVG Version: 2.1.0 Build 186)  -->
  <path d="M529.1,80.5h-258.3c-105,0-190.4,85.4-190.4,190.4v258.3c0,105,85.4,190.4,190.4,190.4h258.3c105,0,190.4-85.4,190.4-190.4v-258.3c0-105-85.4-190.4-190.4-190.4ZM655.2,529.1c0,69.6-56.5,126.1-126.1,126.1h-258.3c-69.6,0-126.1-56.5-126.1-126.1v-258.3c0-69.6,56.5-126.1,126.1-126.1h258.3c69.6,0,126.1,56.5,126.1,126.1v258.3h0Z"/>
  <path d="M400,234.7c-91.1,0-165.3,74.1-165.3,165.3s74.1,165.3,165.3,165.3,165.3-74.1,165.3-165.3-74.1-165.3-165.3-165.3ZM400,501c-55.8,0-101-45.2-101-101s45.2-101,101-101,101,45.2,101,101-45.2,101-101,101Z"/>
  <circle cx="565.6" cy="236" r="39.6"/>
</svg>