<?xml version="1.0" encoding="UTF-8"?>
<svg id="Calque_1" xmlns="http://www.w3.org/2000/svg" version="1.1" viewBox="0 0 3848 358.9">
  <!-- Generator: Adobe Illustrator 29.0.0, SVG Export Plug-In . SVG Version: 2.1.0 Build 186)  -->
  <defs>
    <style>
      .st0 {
        fill: #ffa6d9;
      }
    </style>
  </defs>
  <path class="st0" d="M3772.3,9c-61.7,10.4-119.6,35.6-177.4,58.9-77.7,31.4-162.5,49.6-246.4,36.1-70.5-11.3-136-33.6-208.9-20.6-87.4,15.6-162.3,72.4-243.1,106.7-48.6,20.6-97.7,35-151.3,28-45.4-6-89.3-20.7-131.4-38.2-77.6-32.2-165-84-251.4-65.2-72.6,15.7-136.9,33.9-203.8-10.3-51.6-34.1-108.8-76.8-168.6-94.7-.2-.1-.4-.1-.7-.2-42.6-12.7-88.1-12.7-130.7,0-.2.1-.4.1-.7.2-59.8,17.9-117,60.6-168.7,94.7-66.9,44.2-131.2,26.1-203.8,10.3-86.4-18.8-173.9,33.1-251.4,65.2-42.1,17.4-86,32.2-131.4,38.2-53.6,7-102.7-7.3-151.3-28-80.8-34.3-155.6-91.1-243.1-106.7-72.9-13-138.4,9.3-208.9,20.6-83.9,13.4-168.7-4.8-246.4-36.1-57.6-23.3-115.5-48.5-177.2-58.9C50.5,4.8,25,2.3,0,3.7v355.2h3848V3.7c-25-1.4-50.5,1.1-75.7,5.3Z"/>
</svg>