<?xml version="1.0" standalone="no"?>
<!DOCTYPE svg PUBLIC "-//W3C//DTD SVG 20010904//EN"
 "http://www.w3.org/TR/2001/REC-SVG-20010904/DTD/svg10.dtd">
<svg version="1.0" xmlns="http://www.w3.org/2000/svg"
 width="400.000000pt" height="400.000000pt" viewBox="0 0 400.000000 400.000000"
 preserveAspectRatio="xMidYMid meet">

<g transform="translate(0.000000,400.000000) scale(0.100000,-0.100000)"
fill="#000000" stroke="none">
<path d="M1911 3686 c2 -2 27 -7 55 -10 63 -7 91 -17 146 -53 85 -56 93 -76
42 -110 -17 -11 -23 -10 -40 6 -11 10 -31 22 -45 26 -13 4 -34 16 -47 26 -16
12 -33 16 -53 12 -32 -6 -38 7 -13 31 23 23 1 19 -30 -5 -20 -16 -36 -20 -59
-16 -23 3 -39 -1 -56 -14 -24 -20 -51 -25 -51 -11 0 16 75 84 103 94 15 6 26
12 24 15 -8 7 -81 -27 -105 -50 -13 -12 -30 -34 -38 -49 -16 -30 -77 -54 -129
-50 -23 2 -40 -6 -74 -37 -42 -38 -86 -59 -168 -81 -22 -5 -69 -29 -102 -51
-60 -40 -75 -54 -47 -43 10 4 12 -2 8 -21 -3 -20 -9 -25 -23 -22 -10 3 -24 -1
-30 -9 -10 -12 -9 -13 6 -8 14 6 16 3 11 -17 -7 -23 -6 -23 16 4 13 15 29 27
36 27 7 0 12 6 12 13 0 8 11 19 25 25 29 13 33 5 8 -14 -17 -12 -16 -13 7 -14
24 0 23 -2 -18 -38 -83 -73 -111 -132 -77 -166 8 -8 15 -19 15 -24 0 -6 3 -12
8 -14 20 -8 75 -113 77 -146 2 -24 8 -37 16 -37 8 0 20 -6 28 -13 15 -15 76
-12 76 3 -1 6 -22 15 -47 20 -51 11 -73 25 -40 25 15 0 20 5 16 15 -4 9 1 18
12 22 10 4 19 2 22 -5 7 -22 32 -13 32 12 0 49 10 57 35 28 20 -23 21 -28 7
-38 -9 -7 -13 -19 -9 -32 3 -12 1 -25 -4 -28 -15 -9 0 -24 24 -25 12 0 17 -3
10 -5 -21 -9 -2 -35 21 -29 13 4 17 3 8 -2 -9 -7 -8 -14 7 -30 11 -12 26 -23
33 -26 10 -4 10 -8 -2 -16 -15 -10 -34 -5 -26 8 3 4 -5 8 -16 8 -12 1 -36 16
-53 33 -18 18 -40 30 -50 28 -13 -2 -11 -9 14 -37 28 -31 30 -37 16 -50 -13
-13 -17 -12 -39 12 -14 15 -28 27 -33 27 -4 0 -2 -5 5 -12 18 -18 15 -23 -18
-25 -17 -1 -30 3 -30 9 0 7 -5 6 -15 -2 -17 -14 -20 -60 -4 -60 6 0 8 -11 5
-27 -3 -16 -2 -34 3 -42 7 -11 16 -4 40 29 17 24 31 40 31 35 0 -4 6 -2 14 4
21 18 28 -13 11 -46 -8 -16 -17 -41 -20 -56 -3 -15 -9 -26 -14 -23 -4 3 -13
-5 -18 -17 -10 -22 -71 -41 -198 -62 -51 -9 -65 -21 -65 -56 0 -20 10 -38 30
-57 26 -23 35 -43 56 -137 19 -87 33 -122 64 -169 30 -45 40 -69 40 -100 0
-23 7 -59 15 -81 8 -22 14 -54 15 -70 0 -19 7 -35 20 -43 12 -7 20 -23 20 -40
0 -15 9 -45 20 -66 10 -22 17 -42 15 -47 -3 -4 0 -11 6 -15 6 -4 9 -19 5 -36
-4 -22 -3 -29 7 -25 8 3 14 -4 15 -17 0 -11 11 -29 22 -38 12 -10 23 -23 24
-30 2 -7 8 -26 14 -41 7 -16 12 -32 12 -37 0 -5 7 -7 16 -3 13 5 15 2 10 -15
-7 -22 23 -122 36 -122 5 0 8 -9 8 -20 0 -12 7 -20 16 -20 11 0 14 -5 9 -18
-17 -41 -17 -52 0 -52 13 0 16 -6 11 -26 -5 -17 -3 -23 4 -19 5 3 10 2 10 -4
0 -5 -4 -12 -8 -15 -5 -3 -7 -19 -4 -35 2 -17 8 -28 13 -25 5 3 9 -1 9 -9 0
-19 28 -74 34 -67 8 8 56 -62 56 -82 0 -10 4 -18 10 -18 21 0 50 -36 50 -62 0
-52 -51 -50 -114 4 -11 10 -25 18 -31 18 -12 0 -155 138 -155 150 0 4 -7 11
-16 14 -12 4 -15 2 -11 -9 4 -8 2 -17 -4 -21 -6 -3 -7 -19 -4 -35 4 -18 3 -29
-4 -29 -7 0 -11 -30 -11 -81 0 -83 -10 -119 -35 -119 -7 0 -26 -7 -42 -15 -15
-8 -41 -17 -56 -20 -24 -5 -27 -8 -17 -20 7 -8 21 -17 32 -21 11 -3 36 -15 55
-26 30 -18 33 -23 20 -36 -17 -16 -37 -8 -37 15 0 15 -2 14 -18 0 -10 -10 -28
-17 -39 -17 -30 0 -47 -24 -34 -49 17 -31 13 -50 -11 -56 -29 -7 -76 -75 -53
-75 8 0 15 -7 15 -15 0 -8 -7 -15 -16 -15 -9 0 -27 -11 -40 -25 -22 -24 -22
-24 -2 -31 11 -3 22 -3 25 0 4 3 14 -1 23 -9 9 -8 43 -22 75 -30 75 -20 80
-23 60 -45 -11 -12 -28 -17 -53 -15 -20 1 -27 0 -14 -2 12 -2 22 -7 22 -10 0
-11 -46 -42 -65 -43 l-20 -1 20 -9 c18 -7 16 -10 -17 -24 -25 -11 -44 -13 -60
-7 -43 16 -313 24 -339 10 -24 -12 -39 -28 -39 -41 0 -5 422 -8 939 -8 l938 0
-10 40 c-12 43 -22 51 -29 22 -8 -27 -62 -24 -66 4 -2 15 -12 23 -32 26 -19 3
-26 0 -23 -8 3 -8 -2 -11 -16 -7 -22 6 -28 27 -11 38 13 8 13 45 -1 45 -6 0
-18 -8 -27 -17 -16 -16 -17 -15 -20 1 -5 22 2 29 31 31 26 2 39 45 13 45 -9 0
-18 11 -22 25 -3 14 -10 25 -15 25 -5 0 -9 18 -9 40 0 44 -18 60 -67 60 -35 0
-76 -27 -69 -46 3 -8 0 -14 -7 -14 -14 0 -38 55 -29 64 3 3 18 6 35 6 89 0
297 84 366 149 20 18 29 31 21 27 -8 -3 -23 -9 -32 -12 -10 -4 -18 -11 -18
-16 0 -5 -4 -7 -9 -4 -5 4 -11 1 -13 -6 -3 -7 -26 -12 -61 -12 -49 -1 -59 2
-74 24 -25 34 -43 97 -43 148 0 34 -6 49 -30 72 -16 16 -30 31 -30 33 0 3 18
24 40 48 27 30 36 47 29 55 -6 8 -5 14 6 18 30 11 16 28 -18 22 -22 -4 -39 -1
-52 9 -20 14 -20 15 3 21 17 5 22 12 19 25 -3 11 -2 19 2 19 5 0 18 9 30 19
12 11 31 17 44 15 12 -2 16 -1 7 2 -21 10 -55 44 -43 44 16 0 15 96 -1 113 -8
8 -12 24 -9 35 2 11 -2 45 -11 75 -9 30 -16 64 -16 76 0 11 -8 25 -17 30 -16
9 -16 10 3 11 25 0 49 48 40 78 -4 13 -1 22 9 26 8 3 15 1 15 -5 0 -10 50 -33
56 -26 11 11 21 104 13 123 -10 28 6 80 27 88 8 3 14 17 14 31 0 14 6 25 13
25 7 0 21 17 31 38 10 20 22 44 27 52 5 8 15 26 21 40 7 14 17 28 23 32 5 4 6
8 2 8 -21 0 24 29 54 35 19 4 49 14 68 23 40 20 113 119 106 143 -6 17 17 115
33 146 6 10 19 26 29 35 14 13 18 27 15 53 -4 31 -10 38 -50 55 -25 12 -80 28
-122 36 -88 18 -108 30 -147 83 -15 22 -37 44 -48 50 -18 9 -18 10 -2 10 10 1
16 5 12 10 -3 6 10 25 29 44 19 19 31 39 27 43 -5 5 -13 27 -18 49 -15 62 14
76 87 43 19 -9 42 -19 50 -22 8 -4 26 -13 40 -21 20 -12 22 -15 8 -20 -13 -5
-14 -13 -7 -38 5 -18 9 -48 10 -67 1 -36 3 -34 13 12 6 27 6 27 36 10 17 -9
33 -25 36 -34 3 -12 16 -18 36 -18 23 0 28 3 20 13 -14 16 -44 146 -36 158 3
5 12 9 20 9 8 0 12 5 9 10 -3 6 0 10 8 10 8 0 20 7 27 15 14 17 56 20 65 5 12
-20 26 -10 15 10 -6 11 -17 20 -25 20 -8 0 -15 3 -15 8 0 4 -18 6 -40 4 -33
-3 -40 -1 -40 13 0 17 -1 17 -20 0 -11 -10 -20 -13 -20 -7 0 18 45 43 64 36
11 -4 16 -1 16 13 0 10 5 24 12 31 13 13 19 72 7 72 -4 0 -9 -3 -12 -7 -2 -5
-2 -1 1 7 8 27 3 52 -13 71 -10 10 -15 24 -13 31 3 7 -5 20 -16 30 -18 15 -19
19 -6 28 12 8 12 10 -5 8 -35 -4 -114 14 -126 28 -9 11 -4 23 26 55 44 49 40
62 -6 20 -18 -17 -42 -31 -52 -31 -17 0 -16 3 8 31 30 36 25 54 -6 20 -12 -12
-24 -19 -27 -16 -4 4 1 12 11 19 21 16 23 30 2 22 -12 -4 -15 3 -15 29 0 24
-5 35 -15 35 -8 0 -15 -7 -15 -15 0 -23 -32 -84 -47 -89 -9 -4 -18 5 -25 24
-11 33 -18 36 -36 18 -9 -9 -15 -9 -24 0 -9 9 -7 13 8 19 10 4 20 13 21 18 1
6 4 19 8 30 5 16 2 14 -19 -7 -25 -28 -46 -36 -46 -18 0 6 9 19 20 30 12 12
18 25 15 30 -10 16 -43 11 -53 -7 -13 -22 -46 -9 -39 16 5 20 -67 106 -81 97
-5 -3 -26 4 -46 15 -31 16 -50 19 -108 15 l-71 -5 -49 44 c-68 61 -122 85
-193 85 -32 0 -56 -2 -54 -4z m464 -176 c3 -5 12 -7 20 -4 8 4 28 -8 46 -26
26 -26 30 -34 18 -41 -19 -12 -53 -11 -84 3 -28 13 -30 19 -13 36 9 9 9 12 0
12 -7 0 -12 -4 -12 -10 0 -5 -7 -10 -15 -10 -8 0 -15 5 -15 10 0 6 -7 10 -15
10 -8 0 -15 4 -15 9 0 18 75 28 85 11z m-1105 -315 c-7 -9 -15 -13 -18 -10 -3
2 1 11 8 20 7 9 15 13 18 10 3 -2 -1 -11 -8 -20z m34 -21 c8 -20 8 -24 -1 -24
-17 0 -35 19 -29 29 10 16 23 14 30 -5z m1476 -4 c0 -5 -4 -10 -9 -10 -6 0
-13 5 -16 10 -3 6 1 10 9 10 9 0 16 -4 16 -10z m70 -12 c0 6 10 12 23 12 25
-1 64 -26 54 -36 -4 -4 2 -14 14 -22 12 -8 18 -20 14 -29 -3 -9 -1 -21 5 -28
8 -9 7 -25 -3 -53 -12 -34 -12 -39 -1 -35 26 10 14 -13 -31 -57 -25 -25 -43
-50 -41 -57 6 -15 -41 -46 -60 -39 -22 9 -16 32 14 51 15 10 35 27 44 39 21
25 25 54 6 38 -10 -8 -13 -4 -13 16 0 15 4 33 9 41 6 10 6 12 -3 7 -15 -10
-40 21 -41 48 0 11 -11 34 -26 53 -14 18 -20 33 -15 33 6 0 11 -5 11 -11 0 -5
5 -7 10 -4 6 3 10 16 10 28 0 18 2 19 10 7 6 -10 10 -11 10 -2z m-1610 -8 c0
-5 -5 -10 -11 -10 -5 0 -7 5 -4 10 3 6 8 10 11 10 2 0 4 -4 4 -10z m359 -227
c-6 -24 -15 -43 -19 -43 -12 0 -20 44 -10 54 6 6 10 22 10 36 0 36 12 46 23
18 5 -14 4 -40 -4 -65z m11 -123 c22 -11 46 -17 56 -13 11 4 15 2 11 -4 -4 -6
0 -16 8 -23 16 -13 21 -70 7 -70 -5 0 -15 16 -22 36 -14 35 -16 36 -58 31 -37
-4 -45 -1 -58 18 -13 19 -13 28 -3 47 8 14 14 18 17 10 2 -7 21 -21 42 -32z
m1203 -17 c-3 -7 -9 -10 -14 -7 -14 8 -11 21 5 21 8 0 12 -6 9 -14z m-230 -67
c4 -10 1 -13 -8 -9 -8 3 -12 9 -9 14 7 12 11 11 17 -5z m5 -30 c-2 -1 -11 -7
-20 -14 -14 -11 -16 -10 -13 5 2 10 4 19 4 20 1 1 8 0 16 -4 9 -3 15 -6 13 -7z
m-1144 -233 c-4 -16 -13 -32 -19 -38 -6 -5 -20 -23 -30 -40 -10 -16 -24 -34
-32 -38 -7 -4 -13 -18 -13 -30 0 -18 -2 -19 -10 -7 -5 8 -10 13 -11 10 0 -3
-2 -16 -4 -30 -2 -14 -7 -37 -10 -52 -6 -22 -4 -28 10 -28 23 0 75 -38 75 -55
0 -8 8 -18 18 -24 12 -7 17 -22 17 -56 l1 -47 -73 4 c-130 6 -165 55 -171 240
-5 131 3 154 58 183 30 16 110 32 168 34 31 1 32 -1 26 -26z m1310 -24 c55
-14 92 -46 100 -86 4 -26 1 -36 -19 -52 -16 -12 -23 -25 -19 -35 6 -15 8 -15
20 1 23 30 17 -72 -9 -146 -27 -80 -55 -103 -134 -109 -57 -5 -58 -4 -41 15
15 16 16 32 11 107 -5 67 -10 89 -22 94 -9 3 -28 13 -42 23 -21 15 -25 24 -21
46 2 16 9 33 14 40 5 7 8 26 6 43 -2 25 2 33 26 45 32 17 49 20 26 5 -8 -5
-10 -10 -4 -10 6 0 17 7 24 15 15 18 27 18 84 4z m-1294 -109 c0 -10 -31 -23
-38 -15 -8 7 19 35 29 29 5 -3 9 -9 9 -14z m70 -65 c0 -13 -4 -14 -20 -5 -11
6 -20 13 -20 15 0 3 9 5 20 5 11 0 20 -7 20 -15z m1024 -40 c-1 -5 -12 -15
-25 -22 -29 -15 -48 -1 -29 22 14 17 56 17 54 0z m-684 -35 c0 -5 -4 -10 -10
-10 -5 0 -10 5 -10 10 0 6 5 10 10 10 6 0 10 -4 10 -10z m725 -21 c-16 -31
-57 -55 -64 -37 -4 13 49 68 66 68 11 0 10 -6 -2 -31z m-445 -79 c17 -73 29
-88 50 -61 l15 21 26 -29 c20 -23 23 -31 12 -35 -10 -4 -11 -11 -5 -22 6 -11
5 -26 -4 -44 -12 -24 -12 -33 3 -73 13 -34 15 -53 8 -73 -12 -34 -31 -41 -38
-14 -9 36 -53 26 -82 -20 -14 -22 -29 -40 -34 -40 -5 0 -18 -3 -28 -6 -14 -4
-12 -1 6 16 14 11 25 29 26 38 0 10 3 22 6 27 3 6 12 31 19 58 7 26 17 50 21
53 14 9 10 44 -5 44 -17 0 -22 22 -32 117 -7 77 1 139 15 113 5 -8 14 -40 21
-70z m-243 -261 c2 -16 -1 -20 -13 -15 -8 3 -20 6 -25 6 -13 0 -11 24 3 38 15
15 30 2 35 -29z m47 -41 c-6 -9 -34 1 -34 12 0 5 6 10 13 13 13 4 28 -13 21
-25z m217 -79 c-2 -8 -4 -20 -4 -26 0 -7 -9 -13 -19 -13 -21 0 -26 45 -5 53
19 8 32 1 28 -14z m132 -306 c-10 -25 -51 -26 -82 -2 -17 13 -30 27 -30 31 -1
4 18 8 42 10 45 3 79 -15 70 -39z m17 -107 c0 -7 7 -19 15 -26 21 -18 19 -57
-4 -70 -28 -15 -44 -12 -37 5 7 20 -21 32 -37 16 -6 -6 -18 -11 -27 -11 -10 0
-31 -7 -48 -16 -18 -8 -40 -14 -50 -12 -13 3 -11 7 13 20 17 9 50 37 73 62 33
34 51 46 73 46 18 0 29 -5 29 -14z m47 -432 c-3 -3 -12 -4 -19 -1 -8 3 -5 6 6
6 11 1 17 -2 13 -5z m-577 -164 c-18 -11 -22 -7 -14 14 5 13 10 14 18 6 8 -8
7 -13 -4 -20z m440 -20 c-20 -13 -40 -13 -40 0 0 6 12 10 28 10 21 0 24 -2 12
-10z m-13 -26 c-3 -3 -12 -4 -19 -1 -8 3 -5 6 6 6 11 1 17 -2 13 -5z m158
-494 c-3 -5 -10 -10 -16 -10 -5 0 -9 5 -9 10 0 6 7 10 16 10 8 0 12 -4 9 -10z
m-33 -67 c-6 -2 -10 -9 -7 -13 3 -5 1 -11 -5 -15 -5 -3 -10 0 -10 8 0 17 10
27 24 26 6 0 5 -3 -2 -6z"/>
<path d="M1316 2164 c-9 -23 -8 -24 14 -24 11 0 20 2 20 4 0 12 -13 36 -20 36
-4 0 -11 -7 -14 -16z"/>
<path d="M1726 3615 c-17 -25 -16 -25 3 -13 22 13 36 38 22 38 -5 0 -16 -11
-25 -25z"/>
<path d="M1418 3517 c-14 -12 -34 -38 -42 -57 -16 -34 -16 -34 1 -10 36 51 62
70 95 71 18 0 42 4 53 9 15 6 7 9 -30 9 -38 1 -56 -5 -77 -22z"/>
<path d="M2881 3334 c0 -11 3 -14 6 -6 3 7 2 16 -1 19 -3 4 -6 -2 -5 -13z"/>
<path d="M1060 3192 c0 -4 -13 -13 -30 -19 -16 -6 -30 -17 -30 -24 0 -8 6 -7
18 4 10 10 26 17 35 17 9 0 17 7 17 15 0 8 -2 15 -5 15 -3 0 -5 -4 -5 -8z"/>
<path d="M1113 3155 c-3 -9 -3 -18 -1 -21 3 -3 8 4 11 16 6 23 -1 27 -10 5z"/>
<path d="M1140 3012 c0 -12 19 -26 26 -19 2 2 -2 10 -11 17 -9 8 -15 8 -15 2z"/>
<path d="M1105 2899 c-4 -6 -5 -13 -2 -16 7 -7 27 6 27 18 0 12 -17 12 -25 -2z"/>
<path d="M1220 2901 c0 -5 5 -13 10 -16 6 -3 10 -2 10 4 0 5 -4 13 -10 16 -5
3 -10 2 -10 -4z"/>
<path d="M1101 2794 c0 -11 3 -14 6 -6 3 7 2 16 -1 19 -3 4 -6 -2 -5 -13z"/>
<path d="M1148 2788 c7 -7 12 -22 12 -35 0 -16 4 -21 15 -17 11 5 15 -1 15
-20 0 -14 3 -26 8 -26 7 0 62 65 62 74 0 3 -15 4 -34 2 -24 -4 -40 1 -54 15
-23 20 -44 27 -24 7z"/>
<path d="M1338 2783 c7 -3 16 -2 19 1 4 3 -2 6 -13 5 -11 0 -14 -3 -6 -6z"/>
<path d="M3045 2754 c-16 -13 -25 -24 -19 -24 15 0 61 37 54 43 -3 3 -18 -6
-35 -19z"/>
<path d="M970 2715 c-10 -12 -10 -19 -2 -27 14 -14 17 -11 26 20 8 25 -5 29
-24 7z"/>
<path d="M2966 2665 c-3 -8 -1 -15 4 -15 13 0 22 18 11 24 -5 3 -11 -1 -15 -9z"/>
<path d="M1361 2619 c-14 -42 -7 -49 9 -9 7 17 10 33 8 36 -3 3 -11 -9 -17
-27z"/>
<path d="M1054 2299 c-6 -10 37 -79 49 -79 5 0 7 19 5 43 -3 36 -6 42 -26 43
-12 1 -25 -2 -28 -7z"/>
<path d="M1040 2168 c1 -38 2 -41 14 -25 14 18 11 53 -5 63 -5 3 -9 -14 -9
-38z"/>
<path d="M1070 2075 c-18 -22 -26 -136 -11 -163 7 -13 17 -18 30 -15 16 4 19
15 19 83 1 88 -14 124 -38 95z"/>
<path d="M2842 1935 c0 -16 2 -22 5 -12 2 9 2 23 0 30 -3 6 -5 -1 -5 -18z"/>
<path d="M2440 1000 c0 -5 5 -10 10 -10 6 0 10 5 10 10 0 6 -4 10 -10 10 -5 0
-10 -4 -10 -10z"/>
<path d="M1420 920 c0 -5 5 -10 11 -10 5 0 7 5 4 10 -3 6 -8 10 -11 10 -2 0
-4 -4 -4 -10z"/>
<path d="M2670 611 c0 -6 5 -13 10 -16 6 -3 10 1 10 9 0 9 -4 16 -10 16 -5 0
-10 -4 -10 -9z"/>
<path d="M1180 399 c0 -5 5 -7 10 -4 6 3 10 8 10 11 0 2 -4 4 -10 4 -5 0 -10
-5 -10 -11z"/>
<path d="M2490 210 c-13 -8 -13 -10 2 -10 9 0 20 5 23 10 8 13 -5 13 -25 0z"/>
<path d="M2563 98 c2 -7 12 -13 22 -13 10 0 20 6 23 13 2 7 -6 12 -23 12 -17
0 -25 -5 -22 -12z"/>
<path d="M640 69 c0 -5 5 -7 10 -4 6 3 10 8 10 11 0 2 -4 4 -10 4 -5 0 -10 -5
-10 -11z"/>
<path d="M411 44 c-32 -41 -27 -47 35 -42 43 4 61 11 81 31 l26 26 -51 -1
c-28 0 -55 3 -61 6 -5 3 -19 -6 -30 -20z"/>
<path d="M3807 44 c-3 -4 -2 -15 4 -26 9 -17 11 -17 26 -2 14 13 14 17 2 25
-17 10 -24 11 -32 3z"/>
<path d="M608 3 c7 -3 16 -2 19 1 4 3 -2 6 -13 5 -11 0 -14 -3 -6 -6z"/>
<path d="M3853 3 c9 -2 23 -2 30 0 6 3 -1 5 -18 5 -16 0 -22 -2 -12 -5z"/>
</g>
</svg>
